<?xml version="1.0" encoding="UTF-8" standalone="no"?>
<!-- Created with Inkscape (http://www.inkscape.org/) -->

<svg
   width="15.720031mm"
   height="8.6735058mm"
   viewBox="0 0 15.720031 8.6735057"
   version="1.1"
   id="svg1"
   xml:space="preserve"
   inkscape:version="1.4.2 (f4327f4, 2025-05-13)"
   sodipodi:docname="protboxes_no_align.svg"
   xmlns:inkscape="http://www.inkscape.org/namespaces/inkscape"
   xmlns:sodipodi="http://sodipodi.sourceforge.net/DTD/sodipodi-0.dtd"
   xmlns="http://www.w3.org/2000/svg"
   xmlns:svg="http://www.w3.org/2000/svg"><sodipodi:namedview
     id="namedview1"
     pagecolor="#ffffff"
     bordercolor="#000000"
     borderopacity="0.25"
     inkscape:showpageshadow="2"
     inkscape:pageopacity="0.0"
     inkscape:pagecheckerboard="0"
     inkscape:deskcolor="#d1d1d1"
     inkscape:document-units="mm"
     inkscape:zoom="8.1336326"
     inkscape:cx="46.28928"
     inkscape:cy="39.035449"
     inkscape:window-width="1920"
     inkscape:window-height="1009"
     inkscape:window-x="1912"
     inkscape:window-y="-8"
     inkscape:window-maximized="1"
     inkscape:current-layer="g6" /><defs
     id="defs1"><linearGradient
       id="swatch5"
       inkscape:swatch="solid"><stop
         style="stop-color:#000000;stop-opacity:1;"
         offset="0"
         id="stop5" /></linearGradient></defs><g
     inkscape:label="Layer 1"
     inkscape:groupmode="layer"
     id="layer1"
     transform="translate(-46.260613,-86.17526)"><g
       style="color:#000000;fill:none;stroke-width:1.5"
       id="g5"
       transform="matrix(0.26458333,0,0,0.26458333,45.665301,89.094079)"><path
         d="M 21,3.6 V 20.4 C 21,20.7314 20.7314,21 20.4,21 H 3.6 C 3.26863,21 3,20.7314 3,20.4 V 3.6 C 3,3.26863 3.26863,3 3.6,3 H 20.4 C 20.7314,3 21,3.26863 21,3.6 Z"
         stroke="#000000"
         stroke-width="1.5"
         stroke-linecap="round"
         stroke-linejoin="round"
         id="path1" /></g><g
       style="color:#000000;fill:none;stroke-width:1.5"
       id="g5-2"
       transform="matrix(0.26458333,0,0,0.26458333,56.225957,85.579948)"><path
         d="M 21,3.6 V 20.4 C 21,20.7314 20.7314,21 20.4,21 H 3.6 C 3.26863,21 3,20.4 3,20.4 V 12.134441 3.6 C 3,3.6 3.26863,3 3.6,3 H 20.4 C 20.7314,3 21,3.26863 21,3.6 Z"
         stroke="#000000"
         stroke-width="1.5"
         stroke-linecap="round"
         stroke-linejoin="round"
         id="path1-1"
         sodipodi:nodetypes="sssscccsss" /></g><g
       style="color:#000000;fill:none;stroke-width:1.5"
       id="g6"
       transform="matrix(0.26458333,0,0,0.26458333,51.451211,89.167832)"><path
         d="m 6.090087,31.827213 c -1.10457,0 -2,-0.8954 -2,-2 0,-1.1046 0.89543,-2 2,-2 1.10457,0 2,0.8954 2,2 0,1.1046 -0.89543,2 -2,2 z"
         stroke="#000000"
         stroke-width="1.5"
         stroke-linecap="round"
         stroke-linejoin="round"
         id="path1-6" /></g></g></svg>
