<?xml version="1.0" encoding="UTF-8" standalone="no"?>
<!-- Created with Inkscape (http://www.inkscape.org/) -->

<svg
   width="4.6338248mm"
   height="5.333612mm"
   viewBox="0 0 4.6338249 5.3336119"
   version="1.1"
   id="svg1"
   xml:space="preserve"
   inkscape:version="1.4.2 (f4327f4, 2025-05-13)"
   sodipodi:docname="protboxes_align.svg"
   xmlns:inkscape="http://www.inkscape.org/namespaces/inkscape"
   xmlns:sodipodi="http://sodipodi.sourceforge.net/DTD/sodipodi-0.dtd"
   xmlns="http://www.w3.org/2000/svg"
   xmlns:svg="http://www.w3.org/2000/svg"><sodipodi:namedview
     id="namedview1"
     pagecolor="#ffffff"
     bordercolor="#000000"
     borderopacity="0.25"
     inkscape:showpageshadow="2"
     inkscape:pageopacity="0.0"
     inkscape:pagecheckerboard="0"
     inkscape:deskcolor="#d1d1d1"
     inkscape:document-units="mm"
     inkscape:zoom="32.53453"
     inkscape:cx="3.85744"
     inkscape:cy="10.312121"
     inkscape:window-width="1920"
     inkscape:window-height="1009"
     inkscape:window-x="1912"
     inkscape:window-y="-8"
     inkscape:window-maximized="1"
     inkscape:current-layer="g6" /><defs
     id="defs1"><linearGradient
       id="swatch5"
       inkscape:swatch="solid"><stop
         style="stop-color:#000000;stop-opacity:1;"
         offset="0"
         id="stop5" /></linearGradient><path
       d="M 0,0 H 4194 V 250 H 0 V 128.14 c 1.3,4.98 2.07,9.64 4.86,14.05 2.23,3.95 5.4,6.95 8.71,9.97 7.47,5.11 16.83,8.19 25.88,6.4 3.13,-0.47 6.2,-0.16 9.29,0.39 3.97,0.7 7.37,-0.79 11.31,-0.62 2.7,0 5.26,0.8 7.95,0.81 2.69,-0.04 5.27,-0.82 7.98,-0.8 2.71,-0.13 5.24,0.59 7.91,0.78 3.11,0.17 5.99,-0.85 9.1,-0.78 4.04,-0.07 7.59,1.41 11.69,0.51 3.74,-0.78 7.39,-0.58 11.12,0.09 3.57,0.66 6.67,-0.52 10.17,-0.6 4.23,-0.21 7.94,1.43 12.22,0.51 3.62,-0.71 6.97,-0.66 10.6,0.03 4.29,0.87 8.02,-0.78 12.27,-0.54 2.32,0.04 4.53,0.68 6.84,0.79 3.09,0.13 6,-0.9 9.1,-0.79 2.36,-0.06 4.6,0.48 6.93,0.73 3.48,0.37 6.6,-0.88 10.09,-0.74 3.53,-0.03 6.63,1.21 10.21,0.67 4,-0.6 7.72,-1.24 11.68,0.07 5.35,0.43 10.06,-1.49 15.42,-0.41 3.22,0.68 6.15,0.53 9.37,-0.09 5.49,-1.03 10.41,1.47 15.87,0.14 5.67,-1.35 10.81,1.27 16.39,0.06 3.62,-0.73 7.19,-0.44 10.8,0.2 3.59,0.61 6.67,-0.63 10.2,-0.63 2.71,-0.13 5.26,0.55 7.93,0.77 3.11,0.19 5.98,-0.83 9.09,-0.78 2.38,-0.09 4.62,0.47 6.95,0.73 3.5,0.4 6.58,-0.82 10.07,-0.72 2.73,-0.07 5.3,0.66 8,0.81 8.53,-0.25 16.86,-3.07 23.22,-8.88 7.41,-6.51 11.64,-16.49 11.53,-26.31 -0.57,-8.2 -3.72,-16.35 -9.53,-22.27 -3.82,-4.27 -8.65,-6.75 -13.78,-9.07 -5.29,-0.92 -9.92,-2.56 -15.37,-1.3 -5.55,1.3 -10.58,-1.27 -16.06,-0.11 -3.59,0.72 -7.17,0.5 -10.74,-0.15 -3.97,-0.7 -7.38,0.76 -11.31,0.61 -3.51,-0.01 -6.62,-1.25 -10.2,-0.64 -3.89,0.73 -7.64,0.89 -11.55,0.09 -3.92,-0.8 -7.33,0.56 -11.19,0.55 -3.82,0.12 -7.17,-1.35 -11.04,-0.61 -4.19,0.78 -7.59,0.79 -11.77,-0.01 -3.95,-0.71 -7.33,0.78 -11.24,0.61 -2.34,0.02 -4.55,-0.53 -6.87,-0.75 -3.16,-0.25 -5.91,0.73 -9.07,0.76 -3.92,0.16 -7.32,-1.3 -11.28,-0.62 -3.9,0.73 -7.61,0.84 -11.51,0.05 -3.95,-0.77 -7.35,0.62 -11.24,0.57 -3.1,0.09 -6,-0.93 -9.08,-0.8 -2.68,0.14 -5.22,0.91 -7.94,0.8 -3.53,0.03 -6.65,-1.21 -10.24,-0.67 -3.56,0.59 -7.04,0.98 -10.62,0.29 -2.91,-0.55 -5.33,-0.54 -8.24,0.02 -3.59,0.68 -7.07,0.26 -10.63,-0.32 -3.59,-0.51 -6.68,0.73 -10.23,0.68 -3.83,0.11 -7.16,-1.33 -11.03,-0.61 -3.33,0.59 -6.65,0.88 -10.01,0.26 -2.68,-0.5 -5.26,-0.63 -7.95,-0.1 -3.61,0.73 -7.18,0.46 -10.78,-0.18 -3.94,-0.67 -7.34,0.83 -11.26,0.63 -2.72,-0.03 -5.27,-0.83 -7.99,-0.8 -2.7,0.05 -5.27,0.84 -7.98,0.8 -3.07,0.14 -5.95,-0.88 -9.01,-0.82 -2.43,0.06 -4.86,0.65 -7.28,0.95 -9.39,2.27 -17.58,8.3 -22.3,16.76 C 2,112.6 1.18,117.29 0,121.84 Z"
       id="p0" /><path
       d="m 34.01,90.85 c 3.06,-0.06 5.94,0.96 9.01,0.82 2.71,0.04 5.28,-0.75 7.98,-0.8 2.72,-0.03 5.27,0.77 7.99,0.8 3.92,0.2 7.32,-1.3 11.26,-0.63 3.6,0.64 7.17,0.91 10.78,0.18 2.69,-0.53 5.27,-0.4 7.95,0.1 3.36,0.62 6.68,0.33 10.01,-0.26 3.87,-0.72 7.2,0.72 11.03,0.61 3.55,0.05 6.64,-1.19 10.23,-0.68 3.56,0.58 7.04,1 10.63,0.32 2.91,-0.56 5.33,-0.57 8.24,-0.02 3.58,0.69 7.06,0.3 10.62,-0.29 3.59,-0.54 6.71,0.7 10.24,0.67 2.72,0.11 5.26,-0.66 7.94,-0.8 3.08,-0.13 5.98,0.89 9.08,0.8 3.89,0.05 7.29,-1.34 11.24,-0.57 3.9,0.79 7.61,0.68 11.51,-0.05 3.96,-0.68 7.36,0.78 11.28,0.62 3.16,-0.03 5.91,-1.01 9.07,-0.76 2.32,0.22 4.53,0.77 6.87,0.75 3.91,0.17 7.29,-1.32 11.24,-0.61 4.18,0.8 7.58,0.79 11.77,0.01 3.87,-0.74 7.22,0.73 11.04,0.61 3.86,0.01 7.27,-1.35 11.19,-0.55 3.91,0.8 7.66,0.64 11.55,-0.09 3.58,-0.61 6.69,0.63 10.2,0.64 3.93,0.15 7.34,-1.31 11.31,-0.61 3.57,0.65 7.15,0.87 10.74,0.15 5.48,-1.16 10.51,1.41 16.06,0.11 5.45,-1.26 10.08,0.38 15.37,1.3 5.13,2.32 9.96,4.8 13.78,9.07 5.81,5.92 8.96,14.07 9.53,22.27 0.11,9.82 -4.12,19.8 -11.53,26.31 -6.36,5.81 -14.69,8.63 -23.22,8.88 -2.7,-0.15 -5.27,-0.88 -8,-0.81 -3.49,-0.1 -6.57,1.12 -10.07,0.72 -2.33,-0.26 -4.57,-0.82 -6.95,-0.73 -3.11,-0.05 -5.98,0.97 -9.09,0.78 -2.67,-0.22 -5.22,-0.9 -7.93,-0.77 -3.53,0 -6.61,1.24 -10.2,0.63 -3.61,-0.64 -7.18,-0.93 -10.8,-0.2 -5.58,1.21 -10.72,-1.41 -16.39,-0.06 -5.46,1.33 -10.38,-1.17 -15.87,-0.14 -3.22,0.62 -6.15,0.77 -9.37,0.09 -5.36,-1.08 -10.07,0.84 -15.42,0.41 -3.96,-1.31 -7.68,-0.67 -11.68,-0.07 -3.58,0.54 -6.68,-0.7 -10.21,-0.67 -3.49,-0.14 -6.61,1.11 -10.09,0.74 -2.33,-0.25 -4.57,-0.79 -6.93,-0.73 -3.1,-0.11 -6.01,0.92 -9.1,0.79 -2.31,-0.11 -4.52,-0.75 -6.84,-0.79 -4.25,-0.24 -7.98,1.41 -12.27,0.54 -3.63,-0.69 -6.98,-0.74 -10.6,-0.03 -4.28,0.92 -7.99,-0.72 -12.22,-0.51 -3.5,0.08 -6.6,1.26 -10.17,0.6 -3.73,-0.67 -7.38,-0.87 -11.12,-0.09 -4.1,0.9 -7.65,-0.58 -11.69,-0.51 -3.11,-0.07 -5.99,0.95 -9.1,0.78 -2.67,-0.19 -5.2,-0.91 -7.91,-0.78 -2.71,-0.02 -5.29,0.76 -7.98,0.8 -2.69,-0.01 -5.25,-0.81 -7.95,-0.81 -3.94,-0.17 -7.34,1.32 -11.31,0.62 -3.09,-0.55 -6.16,-0.86 -9.29,-0.39 -9.05,1.79 -18.41,-1.29 -25.88,-6.4 -3.31,-3.02 -6.48,-6.02 -8.71,-9.97 C 2.07,137.78 1.3,133.12 0,128.14 v -6.3 c 1.18,-4.55 2,-9.24 4.43,-13.28 4.72,-8.46 12.91,-14.49 22.3,-16.76 2.42,-0.3 4.85,-0.89 7.28,-0.95 z"
       id="p1" /><path
       d="m 509.71,90.93 c 3.6,-0.44 6.72,0.81 10.28,0.74 3.5,0.11 6.57,-1.14 10.06,-0.73 2.34,0.26 4.59,0.81 6.96,0.73 3.12,0.06 5.99,-0.96 9.1,-0.78 2.67,0.2 5.22,0.88 7.93,0.78 3.52,-0.01 6.62,-1.26 10.2,-0.64 3.61,0.64 7.19,0.92 10.81,0.2 5.59,-1.2 10.72,1.42 16.39,0.06 4.75,-1.21 8.89,0.63 13.59,0.35 2.36,-0.07 4.61,-0.71 6.97,-0.78 2.4,-0.05 4.59,0.58 6.95,0.75 4.46,0.38 8.69,-1.1 13.17,-0.68 6.05,2.12 11.1,-0.9 17.06,0.24 3.58,0.69 7,0.63 10.57,-0.07 3.95,-0.8 7.36,0.62 11.24,0.57 3.78,0.07 7.05,-1.28 10.88,-0.64 3.67,0.72 7.29,0.89 10.98,0.15 4.6,-1.01 8.63,0.84 13.21,0.44 3.46,-0.26 6.61,-1.21 10.14,-0.46 3.57,0.7 6.99,0.63 10.57,-0.04 4.29,-0.88 8.02,0.8 12.27,0.54 2.73,-0.06 5.23,-0.9 7.98,-0.79 2.7,0.14 5.26,0.9 7.99,0.79 2.72,0.06 5.29,-0.69 7.99,-0.8 2.73,-0.07 5.24,0.77 7.96,0.8 4.25,0.21 7.95,-1.42 12.24,-0.52 3.64,0.72 6.95,0.67 10.6,-0.01 3.91,-0.83 7.34,0.52 11.18,0.54 3.84,0.12 7.26,-1.28 11.15,-0.68 4.84,0.74 9.45,1.59 13.74,4.09 8.72,4.75 15.06,12.9 17.19,22.64 1.92,6.97 0.64,13.74 -1.82,20.37 -4.2,10.07 -13.34,17.58 -23.92,20.1 -2.93,0.38 -5.56,1.09 -8.42,0.93 -2.67,-0.19 -5.21,-0.89 -7.91,-0.78 -3.54,-0.05 -6.64,1.21 -10.23,0.66 -3.56,-0.6 -7.05,-0.99 -10.64,-0.29 -5.64,1.33 -10.77,-1.31 -16.46,-0.04 -5.2,1.34 -9.79,-0.82 -14.97,-0.25 -2.94,0.34 -5.61,1.06 -8.6,0.55 -3.35,-0.63 -6.7,-0.9 -10.08,-0.29 -2.7,0.51 -5.26,0.62 -7.96,0.09 -3.62,-0.71 -7.21,-0.45 -10.81,0.2 -3.6,0.6 -6.67,-0.63 -10.2,-0.64 -3.93,-0.17 -7.33,1.32 -11.3,0.62 -3.4,-0.61 -6.8,-0.89 -10.23,-0.24 -2.88,0.58 -5.44,0.53 -8.32,-0.03 -3.37,-0.61 -6.7,-0.33 -10.05,0.26 -3.91,0.72 -7.29,-0.74 -11.15,-0.61 -3.53,-0.02 -6.63,1.21 -10.21,0.66 -4,-0.59 -7.72,-1.23 -11.68,0.08 -3.1,0.21 -6.09,-0.22 -9.14,-0.64 -4.87,-0.65 -9.18,1.45 -14.02,0.39 -3.65,-0.73 -7.26,-0.56 -10.89,0.12 -3.88,0.73 -7.23,-0.72 -11.06,-0.6 -3.11,-0.06 -5.99,0.95 -9.09,0.78 -2.68,-0.21 -5.22,-0.9 -7.93,-0.79 -3.53,0.02 -6.6,1.23 -10.2,0.65 -3.61,-0.64 -7.2,-0.94 -10.83,-0.21 -2.71,0.53 -5.27,0.42 -7.97,-0.09 -3.38,-0.62 -6.74,-0.34 -10.1,0.29 -3.82,0.65 -7.1,-0.73 -10.88,-0.63 -3.1,-0.07 -6.01,0.9 -9.1,0.82 -2.33,-0.08 -4.67,-0.71 -6.95,-1.13 -1.12,-0.23 -2.25,-0.45 -3.38,-0.65 -4.24,-2.02 -8.32,-3.83 -11.77,-7.13 -7.41,-6.51 -11.64,-16.49 -11.51,-26.3 0.52,-7.92 3.56,-15.87 9.01,-21.72 3.91,-4.51 8.9,-7.2 14.27,-9.61 3.05,-0.55 6.08,-1.29 9.15,-1.69 z"
       id="p2" /><path
       d="m 989,90.85 c 2.7,0.07 5.27,0.84 7.98,0.81 3.9,0.16 7.29,-1.33 11.23,-0.61 4.15,0.79 7.58,0.8 11.74,0.01 3.89,-0.72 7.23,0.71 11.06,0.61 3.57,0.07 6.65,-1.22 10.26,-0.69 3.56,0.61 7.06,1.01 10.66,0.33 2.86,-0.54 5.29,-0.57 8.16,-0.02 3.59,0.69 7.09,0.31 10.65,-0.29 3.6,-0.55 6.69,0.71 10.24,0.66 3.84,0.14 7.22,-1.32 11.11,-0.6 3.66,0.67 7.29,0.86 10.96,0.12 4.54,-1.02 8.48,0.83 12.99,0.46 3.15,-0.16 5.98,-1.15 9.21,-0.63 3.56,0.58 7.05,0.99 10.63,0.28 5.61,-1.34 10.71,1.3 16.38,0.05 5.15,-1.35 9.67,0.76 14.79,0.26 2.37,-0.2 4.57,-0.82 6.99,-0.73 2.7,0.13 5.25,0.9 7.98,0.8 3.1,0.06 5.98,-0.95 9.08,-0.78 2.67,0.2 5.21,0.88 7.92,0.77 3.53,0.02 6.63,-1.23 10.22,-0.63 3.61,0.63 7.18,0.92 10.81,0.2 5.64,-1.21 10.79,1.44 16.49,0.05 5.03,-1.25 9.44,0.85 14.44,0.31 3.15,-0.34 6.05,-1.11 9.25,-0.49 3.56,0.69 7.03,0.77 10.59,0.07 4.92,-1.04 9.34,1.13 14.3,0.36 10.84,-2.14 22.85,1.92 30.43,9.93 6.49,6.54 9.76,15.51 9.74,24.66 -0.22,2.66 -0.87,5.27 -1.19,7.91 -2.01,5.63 -4.64,10.83 -9.03,15 -7.11,7.25 -17.14,10.53 -27.17,10.03 -6.05,-2.1 -11.12,0.92 -17.07,-0.24 -3.57,-0.69 -7.06,-0.61 -10.61,0.08 -3.94,0.79 -7.34,-0.62 -11.22,-0.56 -2.73,-0.09 -5.31,0.68 -8.01,0.8 -2.72,0.09 -5.23,-0.74 -7.93,-0.79 -4.26,-0.26 -7.98,1.4 -12.27,0.52 -3.61,-0.68 -7,-0.73 -10.6,-0.03 -4.28,0.94 -7.98,-0.71 -12.22,-0.5 -3.5,0.08 -6.6,1.26 -10.17,0.6 -3.74,-0.68 -7.39,-0.87 -11.14,-0.09 -4.09,0.9 -7.63,-0.58 -11.67,-0.52 -3.11,-0.06 -5.99,0.96 -9.1,0.79 -2.67,-0.19 -5.21,-0.89 -7.91,-0.78 -3.54,-0.01 -6.62,1.21 -10.22,0.65 -3.63,-0.64 -7.21,-0.97 -10.87,-0.22 -5.52,1.21 -10.59,-1.38 -16.19,-0.1 -5.12,1.32 -9.6,-0.77 -14.68,-0.26 -2.02,0.17 -3.98,0.66 -6.01,0.73 -2.74,0.09 -5.24,-0.76 -7.96,-0.8 -4.26,-0.25 -7.99,1.41 -12.28,0.53 -3.66,-0.69 -6.93,-0.72 -10.59,-0.02 -3.53,0.76 -6.67,-0.24 -10.13,-0.48 -4.55,-0.4 -8.55,1.48 -13.12,0.45 -3.71,-0.73 -7.29,-0.56 -10.99,0.14 -3.84,0.69 -7.16,-0.74 -10.95,-0.63 -3.87,-0.02 -7.3,1.36 -11.24,0.55 -3.89,-0.79 -7.64,-0.63 -11.52,0.08 -4,0.65 -7.33,-0.51 -11.27,-1.08 -7.53,-2.03 -13.33,-6.47 -18.44,-12.22 -4.04,-6.36 -6.96,-12.98 -6.98,-20.66 0.01,-7.7 2.93,-14.29 6.98,-20.67 1.84,-1.8 3.6,-3.71 5.52,-5.44 6.18,-5.26 13.94,-7.69 21.96,-8.04 z"
       id="p3" /><path
       d="m 1464.88,90.88 c 3.46,-0.25 6.68,0.93 10.15,0.78 3.52,0 6.62,-1.24 10.22,-0.63 3.6,0.64 7.19,0.92 10.81,0.2 5.61,-1.21 10.74,1.43 16.42,0.06 5.04,-1.28 9.47,0.86 14.5,0.3 2.41,-0.22 4.65,-0.84 7.12,-0.71 2.68,0.18 5.22,0.9 7.92,0.78 3.54,0.03 6.63,-1.22 10.22,-0.65 3.42,0.55 6.76,0.98 10.22,0.33 3,-0.56 5.6,-0.62 8.61,-0.02 3.6,0.66 7.09,0.26 10.65,-0.34 3.61,-0.52 6.71,0.77 10.27,0.69 3.1,0.11 6,-0.92 9.08,-0.8 2.69,0.13 5.23,0.91 7.95,0.8 3.11,0.05 5.98,-0.96 9.09,-0.78 2.67,0.2 5.22,0.88 7.93,0.78 3.52,-0.01 6.62,-1.25 10.2,-0.64 3.6,0.64 7.19,0.92 10.81,0.2 5.58,-1.2 10.7,1.41 16.36,0.07 5.06,-1.28 9.51,0.85 14.56,0.29 2.43,-0.23 4.66,-0.85 7.14,-0.71 2.67,0.2 5.21,0.9 7.92,0.78 3.52,0.02 6.63,-1.21 10.21,-0.64 3.64,0.6 7.2,0.96 10.87,0.22 5.55,-1.22 10.59,1.37 16.2,0.09 5.57,-1.42 10.56,1.15 16.14,0.09 3.57,-0.69 6.4,-0.72 9.96,0.01 5.61,1.06 10.58,-1.52 16.17,-0.15 9.81,1.25 18.6,6.71 24.11,14.9 3.99,6.05 6.29,13.55 5.86,20.81 -0.74,8.25 -4.3,16.45 -10.36,22.18 -6.52,6.67 -16.08,10.09 -25.31,9.91 -4.15,-0.66 -8.18,-1.14 -12.36,-0.21 -4.39,0.91 -8.18,-0.83 -12.55,-0.51 -2.75,0.08 -5.28,0.9 -8.07,0.77 -2.67,-0.17 -5.21,-0.91 -7.92,-0.79 -3.53,-0.04 -6.64,1.21 -10.22,0.65 -3.99,-0.58 -7.7,-1.23 -11.66,0.08 -5.58,0.39 -10.51,-1.58 -16.12,-0.3 -5.1,1.18 -9.66,-1.09 -14.79,-0.29 -3.3,0.55 -6.44,0.98 -9.76,0.23 -6.11,-1.36 -11.61,1.49 -17.72,-0.15 -5.14,-1.03 -9.82,1.3 -14.89,0.29 -3.89,-0.8 -7.69,-0.54 -11.57,0.16 -3.6,0.53 -6.68,-0.73 -10.23,-0.68 -3.85,-0.12 -7.2,1.34 -11.09,0.62 -4.18,-0.8 -7.62,-0.8 -11.8,-0.01 -3.92,0.72 -7.28,-0.75 -11.15,-0.6 -3.52,-0.03 -6.62,1.2 -10.2,0.65 -3.64,-0.61 -7.21,-0.98 -10.88,-0.24 -5.54,1.23 -10.61,-1.34 -16.22,-0.08 -5.37,1.38 -10.13,-0.97 -15.49,-0.19 -2.96,0.44 -5.78,0.98 -8.78,0.38 -3.73,-0.78 -7.43,-0.61 -11.15,0.08 -3.96,0.72 -7.38,-0.76 -11.29,-0.6 -3.53,0 -6.61,1.22 -10.2,0.63 -2.91,-0.47 -5.79,-0.86 -8.75,-0.5 -14.18,2.75 -29.2,-4.69 -35.95,-17.41 -2.5,-4.3 -3.4,-8.95 -4.11,-13.81 -0.64,-11.79 4.86,-23.32 14.6,-30.07 5.43,-3.92 11.73,-5.65 18.32,-6.3 z"
       id="p4" /><path
       d="m 1939.32,91.25 c 4.81,-1.21 8.95,0.7 13.73,0.39 2.74,-0.1 5.27,-0.93 8.06,-0.76 2.67,0.21 5.21,0.9 7.92,0.78 3.53,0 6.62,-1.2 10.21,-0.63 3.63,0.63 7.22,0.93 10.87,0.19 5.53,-1.2 10.59,1.39 16.2,0.1 5.12,-1.33 9.6,0.81 14.68,0.27 2.42,-0.21 4.64,-0.84 7.1,-0.72 2.68,0.18 5.22,0.9 7.92,0.79 3.54,0.04 6.65,-1.2 10.23,-0.66 3.56,0.59 7.04,0.99 10.62,0.29 5.65,-1.35 10.77,1.32 16.47,0.05 5.22,-1.37 9.81,0.83 15,0.23 2.65,-0.28 5.02,-0.93 7.72,-0.63 2.34,0.26 4.59,0.8 6.97,0.73 3.11,0.07 5.99,-0.97 9.09,-0.8 2.67,0.2 5.2,0.92 7.91,0.79 3.55,0.01 6.63,-1.21 10.23,-0.63 3.58,0.61 7.12,0.94 10.73,0.22 5.54,-1.26 10.62,1.35 16.24,0.09 5.14,-1.35 9.65,0.77 14.76,0.26 2.42,-0.22 4.65,-0.85 7.12,-0.73 2.68,0.17 5.21,0.92 7.92,0.8 3.13,0.05 5.97,-1 9.09,-0.77 2.68,0.22 5.22,0.88 7.94,0.77 2.7,0 5.25,-0.82 7.95,-0.81 2.37,0.03 4.61,0.66 6.97,0.77 4.53,0.38 8.51,-1.48 13.06,-0.45 4.42,0.97 8.57,0.23 12.95,-0.32 8.81,0.16 17.45,3.24 23.88,9.37 6.97,6.34 10.66,15.44 11.02,24.77 -0.39,9.64 -4.3,19.01 -11.68,25.38 -6.37,5.76 -14.7,8.58 -23.21,8.76 -2.7,-0.16 -5.27,-0.89 -8,-0.81 -3.11,-0.06 -6,0.95 -9.1,0.79 -2.67,-0.19 -5.2,-0.9 -7.91,-0.78 -3.54,-0.02 -6.62,1.21 -10.22,0.65 -3.41,-0.57 -6.77,-0.97 -10.22,-0.33 -2.99,0.57 -5.58,0.62 -8.58,0.02 -3.62,-0.67 -7.12,-0.25 -10.7,0.34 -3.6,0.5 -6.68,-0.76 -10.26,-0.68 -3.1,-0.1 -6,0.92 -9.09,0.79 -2.32,-0.1 -4.54,-0.75 -6.87,-0.79 -4.25,-0.25 -7.98,1.42 -12.27,0.53 -3.63,-0.68 -6.96,-0.72 -10.59,-0.02 -5.06,1 -9.76,-1.3 -14.9,-0.29 -3.63,0.72 -6.36,0.71 -10,0.01 -5.55,-1.04 -10.51,1.5 -16.03,0.11 -5.61,-1.3 -10.68,1.29 -16.22,0.09 -3.62,-0.72 -7.2,-0.44 -10.8,0.19 -3.93,0.67 -7.34,-0.84 -11.27,-0.62 -2.71,0.01 -5.26,0.83 -7.96,0.8 -2.7,-0.07 -5.27,-0.84 -7.98,-0.81 -3.87,-0.12 -7.23,1.32 -11.14,0.62 -4.19,-0.8 -7.59,-0.82 -11.77,-0.01 -3.91,0.72 -7.27,-0.74 -11.13,-0.6 -3.54,-0.05 -6.63,1.19 -10.21,0.67 -4,-0.6 -7.72,-1.26 -11.69,0.07 -3.41,0.27 -6.66,-0.41 -10.03,-0.71 -4.26,-0.41 -8.04,1.31 -12.26,0.58 -2.88,-0.5 -5.73,-0.83 -8.65,-0.47 -12.6,2.51 -26.43,-3.51 -33.69,-14.04 -3.85,-5.24 -5.78,-11.96 -6.34,-18.38 -0.01,-8.61 3.12,-17.57 9.06,-23.89 5.55,-6.05 12.99,-9.91 21.15,-10.92 z"
       id="p5" /><path
       d="m 2424.15,91.19 c 3.53,0.65 6.75,0.63 10.28,-0.05 4.68,-0.96 8.83,1.03 13.54,0.45 3.65,-0.49 7.04,-1.14 10.72,-0.26 5.69,1.29 10.81,-1.38 16.45,-0.04 3.58,0.69 7.09,0.32 10.65,-0.29 3.59,-0.53 6.65,0.69 10.19,0.67 3.88,0.13 7.25,-1.33 11.17,-0.62 4.2,0.8 7.58,0.8 11.79,0.01 3.88,-0.73 7.24,0.72 11.08,0.6 3.56,0.06 6.63,-1.2 10.23,-0.67 3.56,0.6 7.05,0.99 10.63,0.31 2.91,-0.56 5.33,-0.55 8.24,0 3.58,0.68 7.07,0.29 10.63,-0.31 3.6,-0.52 6.68,0.72 10.23,0.68 2.38,0.08 4.63,-0.47 6.97,-0.74 3.5,-0.4 6.55,0.85 10.06,0.73 3.11,0.08 6,-0.93 9.1,-0.78 2.67,0.19 5.21,0.9 7.91,0.78 3.54,0.03 6.63,-1.22 10.22,-0.65 3.41,0.56 6.75,0.98 10.2,0.33 6.03,-1.43 11.52,1.39 17.6,-0.13 4.55,-1.07 8.49,0.71 12.99,0.45 2.74,-0.08 5.27,-0.9 8.05,-0.79 2.68,0.13 5.22,0.91 7.94,0.8 3.11,0.05 5.98,-0.97 9.09,-0.78 2.68,0.2 5.22,0.88 7.93,0.78 3.52,-0.02 6.62,-1.25 10.2,-0.64 3.6,0.64 7.18,0.92 10.81,0.2 3.13,-0.61 6.18,-0.39 9.27,0.27 12.43,1.79 23.36,11.29 27.06,23.26 1.36,5.23 2.45,10.27 1.11,15.66 -1.54,10.48 -8.41,19.7 -17.72,24.62 -4.39,2.49 -9.69,3.5 -14.66,4.08 -3.47,0.26 -6.67,-0.94 -10.14,-0.79 -3.54,0.01 -6.6,1.23 -10.2,0.65 -3.88,-0.72 -7.67,-0.9 -11.57,-0.11 -3.92,0.82 -7.33,-0.54 -11.18,-0.54 -3.85,-0.12 -7.22,1.34 -11.12,0.61 -4.18,-0.79 -7.61,-0.78 -11.78,0 -3.91,0.71 -7.28,-0.75 -11.14,-0.6 -3.52,-0.03 -6.63,1.2 -10.21,0.65 -3.63,-0.6 -7.17,-0.98 -10.82,-0.25 -5.57,1.25 -10.65,-1.33 -16.28,-0.07 -5.11,1.32 -9.59,-0.76 -14.66,-0.27 -2.4,0.19 -4.61,0.83 -7.06,0.73 -2.69,-0.15 -5.25,-0.9 -7.96,-0.8 -3.11,-0.05 -5.99,0.97 -9.1,0.79 -2.67,-0.2 -5.21,-0.91 -7.92,-0.78 -3.53,0 -6.61,1.22 -10.19,0.63 -3.61,-0.63 -7.18,-0.93 -10.81,-0.21 -5.63,1.23 -10.76,-1.43 -16.46,-0.05 -5.04,1.27 -9.47,-0.85 -14.5,-0.3 -3.16,0.34 -6.06,1.12 -9.27,0.48 -3.88,-0.79 -7.62,-0.65 -11.49,0.06 -3.58,0.65 -6.7,-0.57 -10.22,-0.61 -3.93,-0.19 -7.34,1.28 -11.29,0.62 -3.89,-0.73 -7.63,-0.87 -11.53,-0.06 -3.93,0.79 -7.33,-0.6 -11.2,-0.57 -3.98,-0.06 -7.48,1.38 -11.52,0.54 -4.18,-0.93 -8.22,-0.47 -12.38,0.21 -9.2,0.21 -18.8,-3.26 -25.31,-9.88 -6.08,-5.76 -9.61,-13.93 -10.38,-22.21 -0.51,-8.7 2.96,-18.24 8.88,-24.64 3.91,-4.55 8.89,-7.3 14.29,-9.7 5.08,-0.84 9.37,-2.5 14.56,-1.46 z"
       id="p6" /><path
       d="m 2895.74,90.97 c 3.58,-0.5 6.71,0.67 10.22,0.7 3.93,0.17 7.35,-1.31 11.31,-0.61 3.87,0.72 7.58,0.84 11.46,0.04 3.96,-0.79 7.36,0.63 11.27,0.57 3.98,0.04 7.47,-1.39 11.52,-0.54 3.76,0.8 7.46,0.62 11.21,-0.08 3.97,-0.69 7.39,0.78 11.32,0.62 3.53,-0.03 6.59,-1.24 10.2,-0.64 3.36,0.59 6.7,0.93 10.1,0.3 2.58,-0.47 5.12,-0.65 7.72,-0.15 3.64,0.73 7.25,0.55 10.88,-0.12 3.89,-0.73 7.22,0.72 11.06,0.61 3.55,0.05 6.65,-1.21 10.25,-0.68 3.56,0.6 7.05,0.99 10.64,0.31 2.9,-0.54 5.33,-0.55 8.23,0 3.59,0.7 7.07,0.28 10.63,-0.31 3.59,-0.54 6.68,0.71 10.22,0.68 3.85,0.12 7.21,-1.34 11.11,-0.61 3.34,0.6 6.68,0.87 10.05,0.25 2.68,-0.5 5.22,-0.62 7.91,-0.09 3.57,0.72 7.13,0.47 10.69,-0.18 3.96,-0.67 7.36,0.79 11.29,0.63 2.71,0 5.27,-0.82 7.97,-0.81 2.37,0.03 4.6,0.67 6.96,0.77 4.55,0.39 8.54,-1.49 13.11,-0.45 3.64,0.73 7.26,0.56 10.89,-0.12 3.87,-0.73 7.23,0.72 11.06,0.61 3.86,0.02 7.27,-1.38 11.21,-0.55 3.67,0.7 6.91,0.72 10.59,0.05 4.42,-0.84 8.67,0.26 13,1.25 7.22,2 12.7,6.46 17.63,11.93 2.44,4.32 5.04,8.12 5.96,13.1 2.26,8.26 0.45,17.6 -3.99,24.85 -5.14,8.86 -14.43,14.98 -24.59,16.34 -5.93,1.55 -11.24,-1.26 -17.2,0.02 -5.88,1.46 -11.19,-1.34 -17.11,0.06 -5.45,1.33 -10.35,-1.2 -15.84,-0.15 -3.64,0.72 -6.42,0.7 -10.04,-0.01 -5.12,-1.01 -9.8,1.28 -14.84,0.29 -3.66,-0.7 -6.95,-0.67 -10.61,0.02 -3.92,0.83 -7.32,-0.53 -11.17,-0.53 -2.7,-0.11 -5.24,0.59 -7.91,0.78 -3.1,0.16 -6,-0.87 -9.11,-0.79 -3.1,-0.1 -6,0.93 -9.09,0.8 -2.68,-0.17 -5.22,-0.91 -7.93,-0.79 -3.54,-0.04 -6.63,1.18 -10.21,0.67 -4,-0.6 -7.7,-1.26 -11.67,0.06 -5.35,0.45 -10.08,-1.5 -15.45,-0.41 -3.23,0.68 -6.14,0.54 -9.37,-0.09 -5.55,-1.05 -10.5,1.52 -16.03,0.11 -5.6,-1.29 -10.67,1.28 -16.19,0.1 -3.63,-0.73 -7.21,-0.45 -10.81,0.19 -3.59,0.6 -6.69,-0.6 -10.21,-0.63 -3.93,-0.17 -7.34,1.3 -11.29,0.61 -3.43,-0.59 -6.83,-0.92 -10.29,-0.24 -2.82,0.6 -5.49,0.5 -8.32,-0.03 -3.36,-0.61 -6.7,-0.33 -10.04,0.26 -3.9,0.74 -7.27,-0.74 -11.12,-0.6 -2.71,-0.04 -5.28,0.72 -7.98,0.79 -2.39,0.04 -4.57,-0.58 -6.93,-0.74 -4.92,-0.46 -9.23,1.57 -14.19,0.36 -10.17,-1.2 -19.45,-7.11 -24.86,-15.78 -4.54,-7.2 -6.56,-16.55 -4.48,-24.87 2.02,-10.28 9.42,-19.45 18.91,-23.84 3.77,-1.93 8.13,-2.67 12.29,-3.29 z"
       id="p7" /><path
       d="m 3386.73,91.49 c 3.12,-0.52 6.11,-0.93 9.25,-0.23 3.62,0.71 7.18,0.37 10.78,-0.25 3.6,-0.56 6.68,0.67 10.22,0.66 2.71,0.12 5.25,-0.62 7.93,-0.79 2.78,-0.13 5.32,0.68 8.06,0.77 4.38,0.31 8.18,-1.43 12.59,-0.51 3.74,0.78 7.44,0.62 11.18,-0.09 3.96,-0.7 7.38,0.78 11.3,0.62 2.7,0 5.27,-0.79 7.96,-0.81 2.69,0.04 5.27,0.81 7.97,0.8 3.91,0.18 7.32,-1.32 11.27,-0.61 3.4,0.61 6.79,0.9 10.22,0.24 2.88,-0.58 5.45,-0.52 8.34,0.03 3.37,0.62 6.7,0.33 10.05,-0.26 3.91,-0.72 7.3,0.75 11.16,0.61 2.71,0.03 5.29,-0.76 7.99,-0.81 2.69,0.01 5.26,0.8 7.96,0.8 3.93,0.18 7.34,-1.3 11.29,-0.61 3.59,0.65 7.18,0.89 10.78,0.16 2.89,-0.6 5.68,-0.31 8.56,0.21 3.53,0.58 6.87,0.02 10.35,-0.47 3.5,-0.44 6.59,0.86 10.08,0.71 3.54,0.05 6.63,-1.21 10.23,-0.67 3.55,0.6 7.04,1 10.63,0.31 2.91,-0.56 5.33,-0.55 8.24,0 3.58,0.68 7.07,0.29 10.63,-0.31 3.59,-0.53 6.69,0.73 10.24,0.68 3.84,0.12 7.17,-1.34 11.06,-0.61 3.63,0.69 7.23,0.84 10.88,0.13 3.83,-0.8 7.37,-0.01 11.09,0.78 1.13,0.23 2.26,0.45 3.4,0.64 4.25,2.07 8.35,3.85 11.8,7.18 7.59,6.7 11.93,17.13 11.43,27.21 -0.81,7.89 -3.85,15.52 -9.44,21.25 -3.82,4.28 -8.66,6.79 -13.8,9.13 -4.42,0.7 -9.2,2.35 -13.61,1.56 -3.34,-0.59 -6.67,-0.87 -10.04,-0.26 -3.17,0.68 -6.11,0.49 -9.26,-0.12 -5.35,-1.02 -10.15,1.41 -15.45,0.21 -5.61,-1.29 -10.54,0.72 -16.13,0.29 -6.07,-2.1 -11.12,0.94 -17.08,-0.24 -3.68,-0.74 -7.29,-0.58 -10.96,0.15 -3.82,0.65 -7.1,-0.72 -10.88,-0.63 -3.11,-0.1 -6.01,0.94 -9.11,0.78 -2.67,-0.19 -5.21,-0.89 -7.91,-0.78 -3.54,-0.04 -6.62,1.2 -10.21,0.66 -3.6,-0.6 -7.12,-0.99 -10.75,-0.27 -5.6,1.29 -10.69,-1.34 -16.34,-0.07 -5.38,1.39 -10.14,-0.97 -15.51,-0.17 -2.95,0.44 -5.75,0.97 -8.73,0.38 -3.76,-0.78 -7.46,-0.63 -11.21,0.08 -3.95,0.7 -7.36,-0.78 -11.26,-0.62 -3.54,0.02 -6.61,1.24 -10.21,0.65 -3.39,-0.58 -6.73,-0.95 -10.15,-0.32 -2.6,0.49 -5.14,0.66 -7.76,0.16 -3.67,-0.75 -7.31,-0.56 -10.97,0.14 -3.82,0.65 -7.12,-0.71 -10.89,-0.63 -3.1,-0.07 -6,0.94 -9.09,0.8 -2.68,-0.17 -5.21,-0.91 -7.92,-0.8 -2.71,-0.03 -5.28,0.75 -7.98,0.8 -2.7,0.02 -5.26,-0.78 -7.97,-0.8 -3.92,-0.2 -7.33,1.31 -11.28,0.63 -2.89,-0.48 -5.76,-0.84 -8.7,-0.48 -12.67,2.49 -26.38,-3.42 -33.73,-13.98 -4.11,-5.52 -6.01,-12.71 -6.39,-19.5 0.38,-6.51 2.1,-13.4 5.9,-18.8 5.33,-7.97 14.03,-13.54 23.56,-14.82 5.68,-1.56 10.67,0.98 16.34,0.11 z"
       id="p8" /><path
       d="m 3852.99,90.85 c 3.66,0.31 7.08,1.2 10.8,0.66 3.1,-0.49 6.05,-0.98 9.17,-0.3 3.61,0.72 7.19,0.49 10.78,-0.16 3.96,-0.7 7.37,0.77 11.29,0.62 2.71,0 5.27,-0.79 7.96,-0.8 2.7,0.04 5.27,0.81 7.98,0.79 3.9,0.16 7.28,-1.31 11.21,-0.61 3.72,0.69 7.34,0.87 11.07,0.11 4.97,-1.05 9.48,1.19 14.5,0.34 3.73,-0.7 6.81,-0.84 10.54,-0.07 5.15,1.05 9.82,-1.3 14.9,-0.27 3.67,0.69 6.94,0.66 10.61,-0.03 4.28,-0.87 8,0.78 12.24,0.53 2.34,-0.03 4.55,-0.7 6.88,-0.79 2.77,-0.1 5.31,0.7 8.05,0.78 4.36,0.29 8.17,-1.44 12.56,-0.52 3.75,0.81 7.45,0.61 11.2,-0.07 3.96,-0.69 7.39,0.78 11.32,0.61 3.53,-0.03 6.59,-1.23 10.19,-0.64 3.35,0.6 6.66,0.92 10.04,0.31 2.6,-0.47 5.16,-0.67 7.78,-0.16 3.64,0.73 7.26,0.56 10.89,-0.12 3.89,-0.73 7.22,0.72 11.06,0.61 3.12,0.07 5.99,-0.98 9.1,-0.79 2.67,0.21 5.21,0.9 7.92,0.78 2.7,0.01 5.27,-0.75 7.97,-0.79 2.69,0.01 5.25,0.81 7.96,0.8 4.22,0.12 7.92,-1.46 12.2,-0.49 3.9,0.8 7.7,0.47 11.58,-0.21 11.64,-0.58 23.21,4.99 29.89,14.58 4.05,5.54 6.01,12.67 6.37,19.45 -0.38,6.79 -2.32,13.91 -6.38,19.46 -1.99,2.98 -4.63,5.24 -7.23,7.71 -4.12,2.66 -8.33,4.86 -13.14,6.03 -2.41,0.29 -4.83,0.88 -7.26,0.95 -3.06,0.07 -5.94,-0.95 -9.01,-0.82 -3.11,-0.05 -5.98,0.96 -9.08,0.78 -2.68,-0.21 -5.22,-0.9 -7.93,-0.77 -3.53,0 -6.6,1.22 -10.19,0.63 -3.61,-0.64 -7.19,-0.94 -10.82,-0.2 -5.57,1.21 -10.68,-1.41 -16.33,-0.08 -5.32,1.35 -10.05,-1.03 -15.38,-0.2 -3.36,0.59 -6.54,0.94 -9.92,0.18 -5.68,-1.27 -10.8,1.37 -16.43,0.04 -3.59,-0.68 -7.09,-0.31 -10.65,0.29 -3.6,0.55 -6.68,-0.69 -10.23,-0.67 -2.71,-0.12 -5.24,0.64 -7.92,0.79 -2.79,0.13 -5.31,-0.69 -8.07,-0.77 -4.39,-0.3 -8.18,1.43 -12.58,0.52 -3.74,-0.79 -7.45,-0.62 -11.19,0.07 -3.96,0.71 -7.38,-0.76 -11.3,-0.61 -3.52,0.03 -6.62,1.23 -10.21,0.64 -3.61,-0.64 -7.19,-0.92 -10.81,-0.2 -5.54,1.19 -10.62,-1.39 -16.23,-0.09 -5.51,1.4 -10.45,-1.15 -15.99,-0.11 -3.25,0.64 -6.13,0.76 -9.4,0.09 -5.36,-1.07 -10.07,0.83 -15.42,0.42 -3.97,-1.33 -7.68,-0.68 -11.68,-0.07 -3.58,0.52 -6.67,-0.71 -10.2,-0.67 -4.13,-0.1 -7.78,1.44 -11.98,0.48 -4.04,-0.87 -7.96,-0.4 -11.98,0.25 -9.77,0.3 -19.62,-3.57 -26.32,-10.76 -5.81,-5.94 -8.92,-14.05 -9.52,-22.25 -0.1,-9.82 4.1,-19.86 11.55,-26.35 6.36,-5.78 14.7,-8.67 23.22,-8.86 z"
       id="p9" /></defs><g
     inkscape:label="Layer 1"
     inkscape:groupmode="layer"
     id="layer1"
     transform="translate(-51.526647,-88.036978)"><g
       style="color:#000000;fill:none;stroke-width:1.5"
       id="g6"
       transform="matrix(0.26458333,0,0,0.26458333,50.666751,87.177082)"><path
         d="M 4,12 V 4 h 16 v 8 z"
         stroke="#000000"
         stroke-width="1.5"
         stroke-linecap="round"
         stroke-linejoin="round"
         id="path8" /><path
         d="M 4.0136682,22.658534 V 14.658535 H 20.013668 v 7.999999 z"
         stroke="#000000"
         stroke-width="1.5"
         stroke-linecap="round"
         stroke-linejoin="round"
         id="path8-9"
         style="color:#000000;fill:none;stroke-width:1.5" /></g></g></svg>
