<?xml version="1.0" encoding="UTF-8" standalone="no"?>
<!-- Created with Inkscape (http://www.inkscape.org/) -->

<svg
   width="13.722354mm"
   height="8.5826759mm"
   viewBox="0 0 13.722354 8.5826759"
   version="1.1"
   id="svg1"
   xml:space="preserve"
   xmlns="http://www.w3.org/2000/svg"
   xmlns:svg="http://www.w3.org/2000/svg"><defs
     id="defs1" /><g
     id="layer1"
     transform="translate(-45.806651,-86.708628)"><g
       style="color:#000000;fill:none;stroke-width:1.5"
       id="g1"
       transform="matrix(0.26458333,0,0,0.26458333,45.475922,86.377899)"><path
         d="M 12,22 C 17.5228,22 22,17.5228 22,12 22,6.47715 17.5228,2 12,2 6.47715,2 2,6.47715 2,12 2,17.5228 6.47715,22 12,22 Z"
         stroke="#000000"
         stroke-width="1.5"
         stroke-linecap="round"
         stroke-linejoin="round"
         id="path1" /></g><g
       style="color:#000000;fill:none;stroke-width:1.5"
       id="g2"
       transform="matrix(0.26458333,0,0,0.26458333,47.98125,89.536617)"><path
         d="M 21,3.6 V 20.4 C 21,20.7314 20.7314,21 20.4,21 H 3.6 C 3.26863,21 3,20.7314 3,20.4 V 3.6 C 3,3.26863 3.26863,3 3.6,3 H 20.4 C 20.7314,3 21,3.26863 21,3.6 Z"
         stroke="#000000"
         stroke-width="1.5"
         stroke-linecap="round"
         stroke-linejoin="round"
         id="path1-4" /></g><g
       style="color:#000000;fill:none;stroke-width:1.5"
       id="g3"
       transform="matrix(0.26458333,0,0,0.26458333,51.093778,87.264431)"><path
         d="m 11.4752,2.94682 c 0.2285,-0.41218 0.8211,-0.41218 1.0496,0 L 21.8985,19.8591 C 22.1202,20.259 21.831,20.75 21.3738,20.75 H 2.62625 c -0.45723,0 -0.74644,-0.491 -0.52479,-0.8909 z"
         stroke="#000000"
         stroke-width="1.5"
         stroke-linecap="round"
         stroke-linejoin="round"
         id="path1-7" /></g><g
       style="color:#000000;fill:none;stroke-width:1.5"
       id="g4"
       transform="matrix(0.1730187,0,0,0.1730187,56.284904,88.19457)"><path
         d="m 6,12 h 6 m 6,0 h -6 m 0,0 V 6 m 0,6 v 6"
         stroke="#000000"
         stroke-width="1.5"
         stroke-linecap="round"
         stroke-linejoin="round"
         id="path1-2" /></g></g></svg>
